<?xml version="1.0" encoding="UTF-8"?>
<svg xmlns="http://www.w3.org/2000/svg" xmlns:xlink="http://www.w3.org/1999/xlink" width="50px" height="50px" viewBox="0 0 50 50" version="1.1">
<g id="surface1">
<path style=" stroke:none;fill-rule:evenodd;fill:rgb(0%,0%,0%);fill-opacity:1;" d="M 40.617188 38.898438 L 40.617188 32.847656 L 38.121094 32.847656 L 38.121094 38.898438 Z M 27.394531 36.386719 L 27.394531 32.941406 L 24.972656 32.941406 L 24.972656 35.574219 C 24.972656 36.339844 24.945312 36.554688 24.898438 36.753906 C 24.730469 37.308594 24.148438 37.550781 23.550781 37.550781 C 22.722656 37.550781 22.339844 37.230469 22.1875 36.722656 C 22.140625 36.554688 22.125 36.371094 22.109375 36.1875 C 22.09375 35.988281 22.109375 35.773438 22.109375 35.546875 L 22.109375 32.941406 L 19.65625 32.941406 L 19.65625 36.402344 C 19.65625 37.183594 19.917969 37.765625 20.347656 38.164062 C 21.082031 38.886719 22.324219 39.101562 23.472656 39.101562 C 24.867188 39.101562 25.941406 38.902344 26.707031 38.148438 C 27.105469 37.765625 27.394531 37.261719 27.394531 36.386719 Z M 15.503906 35.957031 C 15.382812 35.9375 15.261719 35.925781 15.136719 35.929688 L 12.378906 35.929688 C 12.242188 35.929688 12.089844 35.941406 12.011719 35.957031 C 12.058594 35.910156 12.148438 35.820312 12.242188 35.699219 L 13.484375 33.644531 C 13.652344 33.367188 13.726562 33.183594 13.757812 33.109375 C 13.789062 33.183594 13.867188 33.367188 14.035156 33.660156 L 15.304688 35.730469 C 15.367188 35.820312 15.460938 35.910156 15.503906 35.957031 Z M 20.132812 38.898438 L 14.617188 30.625 L 11.523438 30.625 L 12.332031 31.589844 C 12.347656 31.605469 12.378906 31.621094 12.410156 31.636719 C 12.378906 31.652344 12.347656 31.667969 12.332031 31.683594 L 7.523438 38.898438 L 10.3125 38.898438 L 11.0625 37.660156 C 11.09375 37.597656 11.109375 37.535156 11.109375 37.507812 C 11.136719 37.507812 11.214844 37.535156 11.292969 37.535156 L 16.269531 37.535156 C 16.347656 37.535156 16.410156 37.519531 16.441406 37.507812 C 16.4375 37.550781 16.449219 37.59375 16.46875 37.628906 L 17.25 38.898438 Z M 37.445312 35.789062 C 37.445312 35.117188 37.171875 34.335938 36.3125 33.246094 L 34.242188 30.625 L 31.363281 30.625 L 33.003906 32.464844 C 33.277344 32.769531 33.632812 33.046875 33.632812 33.046875 C 33.234375 32.816406 32.726562 32.726562 32.328125 32.726562 C 31.378906 32.726562 30.414062 32.925781 29.554688 33.398438 C 28.636719 33.90625 28.023438 34.746094 28.023438 35.867188 C 28.023438 36.722656 28.40625 37.382812 28.898438 37.890625 C 30 38.992188 32.007812 39.097656 32.742188 39.097656 C 33.828125 39.097656 35.53125 38.855469 36.496094 37.980469 C 37.0625 37.460938 37.445312 36.738281 37.445312 35.789062 Z M 35.054688 35.867188 C 35.054688 36.496094 34.640625 36.96875 34.121094 37.230469 C 33.691406 37.460938 33.1875 37.519531 32.742188 37.519531 C 32.296875 37.519531 31.777344 37.429688 31.347656 37.214844 C 30.828125 36.953125 30.429688 36.449219 30.429688 35.898438 C 30.429688 35.238281 30.933594 34.71875 31.53125 34.457031 C 31.898438 34.289062 32.34375 34.226562 32.695312 34.226562 C 33.035156 34.226562 33.523438 34.273438 33.90625 34.425781 C 34.597656 34.71875 35.054688 35.269531 35.054688 35.867188 Z M 39.824219 10.902344 C 38.03125 10.898438 36.289062 11.503906 34.882812 12.617188 C 33.476562 11.503906 31.734375 10.898438 29.941406 10.902344 C 28.148438 10.898438 26.40625 11.503906 25 12.617188 C 23.59375 11.503906 21.851562 10.898438 20.058594 10.902344 C 18.265625 10.898438 16.523438 11.503906 15.117188 12.617188 C 13.710938 11.503906 11.96875 10.898438 10.175781 10.902344 C 5.773438 10.902344 2.207031 14.46875 2.207031 18.871094 C 2.207031 23.273438 5.773438 26.839844 10.175781 26.839844 C 11.96875 26.84375 13.710938 26.238281 15.117188 25.121094 C 16.523438 26.238281 18.265625 26.84375 20.058594 26.839844 C 21.851562 26.84375 23.59375 26.238281 25 25.121094 C 26.40625 26.238281 28.148438 26.84375 29.941406 26.839844 C 31.734375 26.84375 33.476562 26.238281 34.882812 25.121094 C 36.289062 26.238281 38.03125 26.84375 39.824219 26.839844 C 44.226562 26.839844 47.792969 23.273438 47.792969 18.871094 C 47.792969 14.46875 44.226562 10.902344 39.824219 10.902344 Z M 13.8125 23.820312 C 12.796875 24.5625 11.527344 25.015625 10.175781 25.015625 C 6.777344 25.015625 4.03125 22.265625 4.03125 18.871094 C 4.03125 15.472656 6.777344 12.726562 10.175781 12.726562 C 11.527344 12.726562 12.796875 13.179688 13.8125 13.917969 C 12.691406 15.328125 12.085938 17.070312 12.089844 18.871094 C 12.089844 20.667969 12.695312 22.410156 13.8125 23.820312 Z M 15.117188 22.519531 C 14.332031 21.464844 13.914062 20.183594 13.914062 18.871094 C 13.910156 17.554688 14.332031 16.273438 15.117188 15.21875 C 15.902344 16.273438 16.324219 17.554688 16.320312 18.871094 C 16.320312 20.183594 15.898438 21.464844 15.117188 22.519531 Z M 23.695312 23.820312 C 22.640625 24.597656 21.363281 25.015625 20.054688 25.011719 C 18.746094 25.015625 17.472656 24.597656 16.421875 23.820312 C 17.535156 22.410156 18.144531 20.667969 18.144531 18.871094 C 18.148438 17.074219 17.539062 15.328125 16.421875 13.921875 C 17.472656 13.144531 18.746094 12.726562 20.054688 12.730469 C 21.417969 12.730469 22.675781 13.167969 23.695312 13.921875 C 22.578125 15.328125 21.96875 17.074219 21.972656 18.871094 C 21.972656 20.667969 22.582031 22.410156 23.695312 23.820312 Z M 25 22.519531 C 24.214844 21.464844 23.792969 20.183594 23.796875 18.871094 C 23.792969 17.554688 24.214844 16.273438 25 15.21875 C 25.785156 16.273438 26.207031 17.554688 26.203125 18.871094 C 26.203125 20.183594 25.78125 21.464844 25 22.519531 Z M 33.578125 23.820312 C 32.558594 24.570312 31.300781 25.011719 29.9375 25.011719 C 28.574219 25.011719 27.324219 24.570312 26.304688 23.820312 C 27.417969 22.414062 28.027344 20.667969 28.027344 18.871094 C 28.03125 17.074219 27.421875 15.328125 26.304688 13.921875 C 27.324219 13.167969 28.574219 12.730469 29.9375 12.730469 C 31.300781 12.730469 32.558594 13.167969 33.578125 13.921875 C 32.460938 15.328125 31.851562 17.074219 31.855469 18.871094 C 31.855469 20.667969 32.464844 22.410156 33.578125 23.820312 Z M 34.882812 22.519531 C 34.101562 21.464844 33.679688 20.183594 33.679688 18.871094 C 33.675781 17.554688 34.097656 16.273438 34.882812 15.21875 C 35.667969 16.273438 36.089844 17.554688 36.085938 18.871094 C 36.085938 20.183594 35.667969 21.464844 34.882812 22.519531 Z M 39.824219 25.015625 C 38.472656 25.015625 37.203125 24.5625 36.1875 23.820312 C 37.304688 22.410156 37.910156 20.667969 37.910156 18.871094 C 37.914062 17.074219 37.308594 15.328125 36.1875 13.921875 C 37.203125 13.179688 38.472656 12.726562 39.824219 12.726562 C 43.21875 12.726562 45.96875 15.472656 45.96875 18.871094 C 45.96875 22.265625 43.21875 25.015625 39.824219 25.015625 Z M 39.824219 25.015625 "/>
</g>
</svg>
